# xmcd
#
# Track frame offsets:
#	150
#	19177
#	40840
#	56850
#	75472
#
# Disc length: 1233 seconds
#
# Revision: 2
# Processed by: cddbd v1.5.2PL0 Copyright (c) Steve Scherf et al.
# Submitted via: audiograbber 1.83.01
#
DISCID=3604cf05
DTITLE=Peach - The Cure for You
DYEAR=2001
DGENRE=Blues
TTITLE0=That's not love
TTITLE1=the cure for you
TTITLE2=i'm on your side
TTITLE3=crazy for you 
TTITLE4=i wanna roll with you
EXTD=
EXTT0=
EXTT1=
EXTT2=
EXTT3=
EXTT4=
PLAYORDER=
